{
	"asset":{
		"generator":"Khronos glTF Blender I/O v4.3.47",
		"version":"2.0"
	},
	"scene":0,
	"scenes":[
		{
			"name":"Scene",
			"nodes":[
				0
			]
		}
	],
	"nodes":[
		{
			"mesh":0,
			"name":"centro_entretenimiento",
			"rotation":[
				0.00928419642150402,
				0.5358353853225708,
				-0.005892562679946423,
				0.8442508578300476
			]
		}
	],
	"materials":[
		{
			"doubleSided":true,
			"name":"Material.001",
			"pbrMetallicRoughness":{
				"baseColorTexture":{
					"index":0
				},
				"metallicFactor":0,
				"roughnessFactor":0.5
			}
		}
	],
	"meshes":[
		{
			"name":"centro_entretenimiento",
			"primitives":[
				{
					"attributes":{
						"POSITION":0,
						"NORMAL":1,
						"TEXCOORD_0":2
					},
					"indices":3,
					"material":0
				}
			]
		}
	],
	"textures":[
		{
			"sampler":0,
			"source":0
		}
	],
	"images":[
		{
			"mimeType":"image/jpeg",
			"name":"oak_veneer_01_diff_4k",
			"uri":"oak_veneer_01_diff_4k.jpg"
		}
	],
	"accessors":[
		{
			"bufferView":0,
			"componentType":5126,
			"count":5762,
			"max":[
				177.9798583984375,
				32.5,
				41
			],
			"min":[
				7.97985315322876,
				-52.5,
				-0.30000001192092896
			],
			"type":"VEC3"
		},
		{
			"bufferView":1,
			"componentType":5126,
			"count":5762,
			"type":"VEC3"
		},
		{
			"bufferView":2,
			"componentType":5126,
			"count":5762,
			"type":"VEC2"
		},
		{
			"bufferView":3,
			"componentType":5123,
			"count":17172,
			"type":"SCALAR"
		}
	],
	"bufferViews":[
		{
			"buffer":0,
			"byteLength":69144,
			"byteOffset":0,
			"target":34962
		},
		{
			"buffer":0,
			"byteLength":69144,
			"byteOffset":69144,
			"target":34962
		},
		{
			"buffer":0,
			"byteLength":46096,
			"byteOffset":138288,
			"target":34962
		},
		{
			"buffer":0,
			"byteLength":34344,
			"byteOffset":184384,
			"target":34963
		}
	],
	"samplers":[
		{
			"magFilter":9729,
			"minFilter":9987
		}
	],
	"buffers":[
		{
			"byteLength":218728,
			"uri":"carpinteria.bin"
		}
	]
}
