{
	"asset":{
		"generator":"Khronos glTF Blender I/O v4.3.47",
		"version":"2.0"
	},
	"extensionsUsed":[
		"KHR_materials_specular"
	],
	"scene":0,
	"scenes":[
		{
			"name":"Scene",
			"nodes":[
				0
			]
		}
	],
	"nodes":[
		{
			"mesh":0,
			"name":"centro_entretenimiento",
			"rotation":[
				0.7071068286895752,
				0,
				0,
				0.7071068286895752
			]
		}
	],
	"materials":[
		{
			"doubleSided":true,
			"extensions":{
				"KHR_materials_specular":{
					"specularFactor":0
				}
			},
			"name":"Roble_-_Semibrillante.002",
			"pbrMetallicRoughness":{
				"baseColorFactor":[
					0,
					0,
					0,
					1
				],
				"metallicFactor":0
			}
		}
	],
	"meshes":[
		{
			"name":"centro_entretenimiento.002",
			"primitives":[
				{
					"attributes":{
						"POSITION":0,
						"NORMAL":1,
						"TEXCOORD_0":2
					},
					"indices":3,
					"material":0
				}
			]
		}
	],
	"accessors":[
		{
			"bufferView":0,
			"componentType":5126,
			"count":5762,
			"max":[
				177.9798583984375,
				32.5,
				41
			],
			"min":[
				7.97985315322876,
				-52.5,
				-0.30000001192092896
			],
			"type":"VEC3"
		},
		{
			"bufferView":1,
			"componentType":5126,
			"count":5762,
			"type":"VEC3"
		},
		{
			"bufferView":2,
			"componentType":5126,
			"count":5762,
			"type":"VEC2"
		},
		{
			"bufferView":3,
			"componentType":5123,
			"count":17172,
			"type":"SCALAR"
		}
	],
	"bufferViews":[
		{
			"buffer":0,
			"byteLength":69144,
			"byteOffset":0,
			"target":34962
		},
		{
			"buffer":0,
			"byteLength":69144,
			"byteOffset":69144,
			"target":34962
		},
		{
			"buffer":0,
			"byteLength":46096,
			"byteOffset":138288,
			"target":34962
		},
		{
			"buffer":0,
			"byteLength":34344,
			"byteOffset":184384,
			"target":34963
		}
	],
	"buffers":[
		{
			"byteLength":218728,
			"uri":"carpinteria.bin"
		}
	]
}
