{
  "accessors": [
    {
      "bufferView": 2,
      "componentType": 5126,
      "count": 66,
      "max": [
        9.126752853393555,
        9.125144004821777,
        4.351218223571777
      ],
      "min": [
        -9.124852180480957,
        -9.125650405883789,
        1.8862669467926025
      ],
      "type": "VEC3"
    },
    {
      "bufferView": 2,
      "byteOffset": 792,
      "componentType": 5126,
      "count": 66,
      "max": [
        0.9999935626983643,
        0.9999334812164307,
        0.26649725437164307
      ],
      "min": [
        -0.9999940395355225,
        -1.0,
        -0.011536294594407082
      ],
      "type": "VEC3"
    },
    {
      "bufferView": 1,
      "componentType": 5126,
      "count": 66,
      "max": [
        5.220030784606934,
        0.8098639845848083
      ],
      "min": [
        -4.189260959625244,
        0.2112089991569519
      ],
      "type": "VEC2"
    },
    {
      "bufferView": 0,
      "componentType": 5125,
      "count": 192,
      "type": "SCALAR"
    },
    {
      "bufferView": 2,
      "byteOffset": 1584,
      "componentType": 5126,
      "count": 1440,
      "max": [
        11.06376838684082,
        11.006681442260742,
        1.259734034538269
      ],
      "min": [
        -11.005990982055664,
        -11.005983352661133,
        -0.8245099782943726
      ],
      "type": "VEC3"
    },
    {
      "bufferView": 2,
      "byteOffset": 18864,
      "componentType": 5126,
      "count": 1440,
      "max": [
        0.9987438321113586,
        0.998238205909729,
        0.9954593181610107
      ],
      "min": [
        -0.9978665113449097,
        -0.9973638653755188,
        -0.9631651043891907
      ],
      "type": "VEC3"
    },
    {
      "bufferView": 0,
      "byteOffset": 768,
      "componentType": 5125,
      "count": 8640,
      "type": "SCALAR"
    },
    {
      "bufferView": 2,
      "byteOffset": 36144,
      "componentType": 5126,
      "count": 4,
      "max": [
        4.8474907875061035,
        4.8453168869018555,
        4.42586088180542
      ],
      "min": [
        -4.84780216217041,
        -4.849975109100342,
        4.42586088180542
      ],
      "type": "VEC3"
    },
    {
      "bufferView": 2,
      "byteOffset": 36192,
      "componentType": 5126,
      "count": 4,
      "max": [
        0.0,
        -0.0,
        1.0
      ],
      "min": [
        0.0,
        -0.0,
        1.0
      ],
      "type": "VEC3"
    },
    {
      "bufferView": 1,
      "byteOffset": 528,
      "componentType": 5126,
      "count": 4,
      "max": [
        1.0,
        1.0
      ],
      "min": [
        0.0,
        0.0
      ],
      "type": "VEC2"
    },
    {
      "bufferView": 0,
      "byteOffset": 35328,
      "componentType": 5125,
      "count": 6,
      "type": "SCALAR"
    },
    {
      "bufferView": 2,
      "byteOffset": 36240,
      "componentType": 5126,
      "count": 1440,
      "max": [
        9.036042213439941,
        9.02975082397461,
        5.6012468338012695
      ],
      "min": [
        -9.078268051147461,
        -9.03508186340332,
        3.8896560668945313
      ],
      "type": "VEC3"
    },
    {
      "bufferView": 2,
      "byteOffset": 53520,
      "componentType": 5126,
      "count": 1440,
      "max": [
        0.9991117715835571,
        0.9992918372154236,
        0.9954583644866943
      ],
      "min": [
        -0.9990888833999634,
        -0.9991233348846436,
        -0.9631627202033997
      ],
      "type": "VEC3"
    },
    {
      "bufferView": 0,
      "byteOffset": 35352,
      "componentType": 5125,
      "count": 8640,
      "type": "SCALAR"
    },
    {
      "bufferView": 2,
      "byteOffset": 70800,
      "componentType": 5126,
      "count": 180,
      "max": [
        11.998291015625,
        11.997798919677734,
        0.03227600082755089
      ],
      "min": [
        -11.99771499633789,
        -11.998207092285156,
        -0.9752449989318848
      ],
      "type": "VEC3"
    },
    {
      "bufferView": 2,
      "byteOffset": 72960,
      "componentType": 5126,
      "count": 180,
      "max": [
        0.8660237789154053,
        0.8660237789154053,
        0.9825200438499451
      ],
      "min": [
        -0.8660237789154053,
        -0.8660237789154053,
        -0.9661728739738464
      ],
      "type": "VEC3"
    },
    {
      "bufferView": 0,
      "byteOffset": 69912,
      "componentType": 5125,
      "count": 1068,
      "type": "SCALAR"
    },
    {
      "bufferView": 2,
      "byteOffset": 75120,
      "componentType": 5126,
      "count": 693,
      "max": [
        5.406650066375732,
        5.812746047973633,
        8.33517837524414
      ],
      "min": [
        -5.299824237823486,
        -5.939284801483154,
        4.378087043762207
      ],
      "type": "VEC3"
    },
    {
      "bufferView": 2,
      "byteOffset": 83436,
      "componentType": 5126,
      "count": 693,
      "max": [
        1.0,
        1.0,
        0.9935582876205444
      ],
      "min": [
        -1.0,
        -1.0,
        -0.65323805809021
      ],
      "type": "VEC3"
    },
    {
      "bufferView": 1,
      "byteOffset": 560,
      "componentType": 5126,
      "count": 693,
      "max": [
        0.9355909824371338,
        0.5456089973449707
      ],
      "min": [
        0.0006079999729990959,
        0.000674000009894371
      ],
      "type": "VEC2"
    },
    {
      "bufferView": 0,
      "byteOffset": 74184,
      "componentType": 5125,
      "count": 2538,
      "type": "SCALAR"
    },
    {
      "bufferView": 2,
      "byteOffset": 91752,
      "componentType": 5126,
      "count": 160,
      "max": [
        9.126752853393555,
        9.125144004821777,
        4.4507880210876465
      ],
      "min": [
        -9.124961853027344,
        -9.125650405883789,
        1.658931016921997
      ],
      "type": "VEC3"
    },
    {
      "bufferView": 2,
      "byteOffset": 93672,
      "componentType": 5126,
      "count": 160,
      "max": [
        1.0,
        0.9999334812164307,
        0.9999983310699463
      ],
      "min": [
        -0.9999988079071045,
        -1.0,
        -0.024781715124845505
      ],
      "type": "VEC3"
    },
    {
      "bufferView": 1,
      "byteOffset": 6104,
      "componentType": 5126,
      "count": 160,
      "max": [
        0.0,
        0.0
      ],
      "min": [
        0.0,
        0.0
      ],
      "type": "VEC2"
    },
    {
      "bufferView": 0,
      "byteOffset": 84336,
      "componentType": 5125,
      "count": 474,
      "type": "SCALAR"
    },
    {
      "bufferView": 2,
      "byteOffset": 95592,
      "componentType": 5126,
      "count": 226,
      "max": [
        9.125636100769043,
        9.11709213256836,
        1.7681260108947754
      ],
      "min": [
        -9.125060081481934,
        -9.1255521774292,
        -0.5
      ],
      "type": "VEC3"
    },
    {
      "bufferView": 2,
      "byteOffset": 98304,
      "componentType": 5126,
      "count": 226,
      "max": [
        1.0,
        0.9996928572654724,
        0.010902006179094315
      ],
      "min": [
        -0.9999992251396179,
        -1.0,
        -0.9999998807907104
      ],
      "type": "VEC3"
    },
    {
      "bufferView": 1,
      "byteOffset": 7384,
      "componentType": 5126,
      "count": 226,
      "max": [
        7.851900100708008,
        3.1125400066375732
      ],
      "min": [
        -6.851900100708008,
        -2.7949700355529785
      ],
      "type": "VEC2"
    },
    {
      "bufferView": 0,
      "byteOffset": 86232,
      "componentType": 5125,
      "count": 474,
      "type": "SCALAR"
    },
    {
      "bufferView": 2,
      "byteOffset": 101016,
      "componentType": 5126,
      "count": 756,
      "max": [
        5.2449870109558105,
        5.656130790710449,
        8.618067741394043
      ],
      "min": [
        -5.143209934234619,
        -5.781354904174805,
        8.236845970153809
      ],
      "type": "VEC3"
    },
    {
      "bufferView": 2,
      "byteOffset": 110088,
      "componentType": 5126,
      "count": 756,
      "max": [
        0.9993906617164612,
        0.9986218810081482,
        0.9966773390769958
      ],
      "min": [
        -0.9993906617164612,
        -0.9986214637756348,
        -1.0
      ],
      "type": "VEC3"
    },
    {
      "bufferView": 0,
      "byteOffset": 88128,
      "componentType": 5125,
      "count": 1188,
      "type": "SCALAR"
    },
    {
      "bufferView": 2,
      "byteOffset": 119160,
      "componentType": 5126,
      "count": 234,
      "max": [
        5.467638969421387,
        5.873941898345947,
        9.642234802246094
      ],
      "min": [
        -5.367856025695801,
        -6.009484767913818,
        8.39474105834961
      ],
      "type": "VEC3"
    },
    {
      "bufferView": 2,
      "byteOffset": 121968,
      "componentType": 5126,
      "count": 234,
      "max": [
        0.9983701705932617,
        0.9985052943229675,
        0.9984272122383118
      ],
      "min": [
        -0.9967982769012451,
        -0.9985052943229675,
        -0.9997091889381409
      ],
      "type": "VEC3"
    },
    {
      "bufferView": 1,
      "byteOffset": 9192,
      "componentType": 5126,
      "count": 234,
      "max": [
        0.6493780016899109,
        0.9168679714202881
      ],
      "min": [
        0.30806198716163635,
        0.05050500109791756
      ],
      "type": "VEC2"
    },
    {
      "bufferView": 0,
      "byteOffset": 92880,
      "componentType": 5125,
      "count": 1296,
      "type": "SCALAR"
    }
  ],
  "asset": {
    "extras": {
      "author": "1-3D.com (https://sketchfab.com/1-3D.com)",
      "license": "CC-BY-SA-4.0 (http://creativecommons.org/licenses/by-sa/4.0/)",
      "source": "https://sketchfab.com/3d-models/birthday-cake-5cf964c63ed24e5389fcdda2f6b4663c",
      "title": "Birthday cake"
    },
    "generator": "Sketchfab-12.78.0",
    "version": "2.0"
  },
  "bufferViews": [
    {
      "buffer": 0,
      "byteLength": 98064,
      "name": "floatBufferViews",
      "target": 34963
    },
    {
      "buffer": 0,
      "byteLength": 11064,
      "byteOffset": 98064,
      "byteStride": 8,
      "name": "floatBufferViews",
      "target": 34962
    },
    {
      "buffer": 0,
      "byteLength": 124776,
      "byteOffset": 109128,
      "byteStride": 12,
      "name": "floatBufferViews",
      "target": 34962
    }
  ],
  "buffers": [
    {
      "byteLength": 233904,
      "uri": "scene.bin"
    }
  ],
  "images": [
    {
      "uri": "textures/cake_baseColor.jpeg"
    },
    {
      "uri": "textures/candle_baseColor.png"
    },
    {
      "uri": "textures/chocolat_cake_baseColor.jpeg"
    },
    {
      "uri": "textures/flame_baseColor.png"
    },
    {
      "uri": "textures/text_baseColor.png"
    }
  ],
  "materials": [
    {
      "doubleSided": true,
      "name": "cake",
      "pbrMetallicRoughness": {
        "baseColorTexture": {
          "index": 0
        },
        "metallicFactor": 0.0
      }
    },
    {
      "doubleSided": true,
      "name": "candle",
      "pbrMetallicRoughness": {
        "baseColorTexture": {
          "index": 1
        },
        "metallicFactor": 0.0
      }
    },
    {
      "doubleSided": true,
      "name": "chocolat",
      "pbrMetallicRoughness": {
        "baseColorFactor": [
          0.066806,
          0.027326,
          0.018912,
          1.0
        ],
        "metallicFactor": 0.0,
        "roughnessFactor": 0.8434915419926713
      }
    },
    {
      "doubleSided": true,
      "name": "chocolat_cake",
      "pbrMetallicRoughness": {
        "baseColorTexture": {
          "index": 2
        },
        "metallicFactor": 0.0
      }
    },
    {
      "doubleSided": true,
      "name": "creme",
      "pbrMetallicRoughness": {
        "baseColorFactor": [
          1.0,
          0.776112,
          0.214468,
          1.0
        ],
        "metallicFactor": 0.0
      }
    },
    {
      "alphaMode": "BLEND",
      "doubleSided": true,
      "name": "flame",
      "pbrMetallicRoughness": {
        "baseColorFactor": [
          1.0,
          1.0,
          1.0,
          0.737226
        ],
        "baseColorTexture": {
          "index": 3
        },
        "metallicFactor": 0.0
      }
    },
    {
      "doubleSided": true,
      "name": "mecha",
      "pbrMetallicRoughness": {
        "baseColorFactor": [
          0.020379,
          0.014825,
          0.009801,
          1.0
        ],
        "metallicFactor": 0.0
      }
    },
    {
      "alphaMode": "BLEND",
      "doubleSided": true,
      "name": "text",
      "pbrMetallicRoughness": {
        "baseColorTexture": {
          "index": 4
        },
        "metallicFactor": 0.0
      }
    },
    {
      "doubleSided": true,
      "name": "white-ceramic",
      "pbrMetallicRoughness": {
        "metallicFactor": 0.0,
        "roughnessFactor": 0.9322503547435119
      }
    }
  ],
  "meshes": [
    {
      "name": "Object_0",
      "primitives": [
        {
          "attributes": {
            "NORMAL": 1,
            "POSITION": 0,
            "TEXCOORD_0": 2
          },
          "indices": 3,
          "material": 0,
          "mode": 4
        }
      ]
    },
    {
      "name": "Object_1",
      "primitives": [
        {
          "attributes": {
            "NORMAL": 5,
            "POSITION": 4
          },
          "indices": 6,
          "material": 2,
          "mode": 4
        }
      ]
    },
    {
      "name": "Object_2",
      "primitives": [
        {
          "attributes": {
            "NORMAL": 8,
            "POSITION": 7,
            "TEXCOORD_0": 9
          },
          "indices": 10,
          "material": 7,
          "mode": 4
        }
      ]
    },
    {
      "name": "Object_3",
      "primitives": [
        {
          "attributes": {
            "NORMAL": 12,
            "POSITION": 11
          },
          "indices": 13,
          "material": 4,
          "mode": 4
        }
      ]
    },
    {
      "name": "Object_4",
      "primitives": [
        {
          "attributes": {
            "NORMAL": 15,
            "POSITION": 14
          },
          "indices": 16,
          "material": 8,
          "mode": 4
        }
      ]
    },
    {
      "name": "Object_5",
      "primitives": [
        {
          "attributes": {
            "NORMAL": 18,
            "POSITION": 17,
            "TEXCOORD_0": 19
          },
          "indices": 20,
          "material": 1,
          "mode": 4
        }
      ]
    },
    {
      "name": "Object_6",
      "primitives": [
        {
          "attributes": {
            "NORMAL": 22,
            "POSITION": 21,
            "TEXCOORD_0": 23
          },
          "indices": 24,
          "material": 2,
          "mode": 4
        }
      ]
    },
    {
      "name": "Object_7",
      "primitives": [
        {
          "attributes": {
            "NORMAL": 26,
            "POSITION": 25,
            "TEXCOORD_0": 27
          },
          "indices": 28,
          "material": 3,
          "mode": 4
        }
      ]
    },
    {
      "name": "Object_8",
      "primitives": [
        {
          "attributes": {
            "NORMAL": 30,
            "POSITION": 29
          },
          "indices": 31,
          "material": 6,
          "mode": 4
        }
      ]
    },
    {
      "name": "Object_9",
      "primitives": [
        {
          "attributes": {
            "NORMAL": 33,
            "POSITION": 32,
            "TEXCOORD_0": 34
          },
          "indices": 35,
          "material": 5,
          "mode": 4
        }
      ]
    }
  ],
  "nodes": [
    {
      "children": [
        1
      ],
      "matrix": [
        1.0,
        0.0,
        0.0,
        0.0,
        0.0,
        2.220446049250313e-16,
        -1.0,
        0.0,
        0.0,
        1.0,
        2.220446049250313e-16,
        0.0,
        0.0,
        0.0,
        0.0,
        1.0
      ],
      "name": "Sketchfab_model"
    },
    {
      "children": [
        2,
        3,
        4,
        5,
        6,
        7,
        8,
        9,
        10,
        11
      ],
      "name": "birthday_cake.obj.cleaner.materialmerger.gles"
    },
    {
      "mesh": 0,
      "name": "Object_2"
    },
    {
      "mesh": 1,
      "name": "Object_3"
    },
    {
      "mesh": 2,
      "name": "Object_4"
    },
    {
      "mesh": 3,
      "name": "Object_5"
    },
    {
      "mesh": 4,
      "name": "Object_6"
    },
    {
      "mesh": 5,
      "name": "Object_7"
    },
    {
      "mesh": 6,
      "name": "Object_8"
    },
    {
      "mesh": 7,
      "name": "Object_9"
    },
    {
      "mesh": 8,
      "name": "Object_10"
    },
    {
      "mesh": 9,
      "name": "Object_11"
    }
  ],
  "samplers": [
    {
      "magFilter": 9729,
      "minFilter": 9987,
      "wrapS": 10497,
      "wrapT": 10497
    }
  ],
  "scene": 0,
  "scenes": [
    {
      "name": "Sketchfab_Scene",
      "nodes": [
        0
      ]
    }
  ],
  "textures": [
    {
      "sampler": 0,
      "source": 0
    },
    {
      "sampler": 0,
      "source": 1
    },
    {
      "sampler": 0,
      "source": 2
    },
    {
      "sampler": 0,
      "source": 3
    },
    {
      "sampler": 0,
      "source": 4
    }
  ]
}
